Coordinates
version=1
nRows=9
nColumns=36
inDegrees=yes

Units are S.I. units (second, meters, Newtons, ...)
If the header above contains a line with 'inDegrees', this indicates whether rotational values are in degrees (yes) or radians (no).

endheader
time	pelvis_tilt	pelvis_list	pelvis_rotation	pelvis_tx	pelvis_ty	pelvis_tz	hip_flexion_r	hip_adduction_r	hip_rotation_r	knee_angle_r	knee_angle_r_beta	ankle_angle_r	subtalar_angle_r	mtp_angle_r	hip_flexion_l	hip_adduction_l	hip_rotation_l	knee_angle_l	knee_angle_l_beta	ankle_angle_l	subtalar_angle_l	mtp_angle_l	lumbar_extension	lumbar_bending	lumbar_rotation	arm_flex_r	arm_add_r	arm_rot_r	elbow_flex_r	pro_sup_r	arm_flex_l	arm_add_l	arm_rot_l	elbow_flex_l	pro_sup_l
      9.50000000	    -16.66797977	     15.24152108	     31.58701299	      0.66704352	      0.64930399	      0.00140490	    111.75793930	    -14.55899460	     39.29538607	     62.71131003	      1.09451884	    -11.80901121	    -10.98642793	     -7.49999987	     89.20057596	     20.24412185	    -25.01971889	    109.80761452	      1.91650442	     19.68988441	    -13.85416760	     -7.49999987	    -43.89780008	    -10.67146493	    -29.07435904	     92.04732892	     10.86138966	     69.11711885	    105.13798640	     71.15177505	    109.27286167	    -13.20154840	     77.97154426	    121.65091990	     69.79674687
      9.51666670	    -16.80915647	     15.16203378	     31.54698662	      0.65618363	      0.64667799	      0.00057490	    111.98438939	    -14.45849008	     39.31271467	     62.80074622	      1.09607979	    -12.04487490	    -10.97785264	     -7.49999987	     89.63375898	     20.14263085	    -25.15269750	    110.14781852	      1.92244210	     20.17671450	    -13.21377226	     -7.49999987	    -43.51227836	    -10.59352316	    -29.15108960	     92.91137480	     10.45464232	     69.44419743	    105.26135366	     71.03604535	    109.87673580	    -12.94362056	     77.77131415	    120.71741463	     69.90737054
      9.53333330	    -16.88578425	     15.20857478	     31.51182598	      0.65572154	      0.64878081	      0.00056684	    112.07953423	    -14.47262224	     39.31505336	     62.74437409	      1.09509591	    -12.29621619	    -10.76570336	     -7.49999987	     89.89352027	     20.07942427	    -25.35601438	    110.30712763	      1.92522257	     20.40831168	    -12.85009629	     -7.49999987	    -43.35696093	    -10.54741068	    -28.98271561	     93.56630044	      9.76688300	     69.72679588	    105.15660979	     70.77689372	    109.82853245	    -12.85086415	     77.64699730	    120.21828647	     71.39301993
      9.55000000	    -16.78741979	     15.32805693	     31.43869865	      0.66145589	      0.65228204	      0.00371275	    111.93444946	    -14.49516403	     39.32631578	     62.62581402	      1.09302665	    -12.46209484	    -10.57608082	     -7.49999987	     89.86776766	     20.08748498	    -25.43555544	    110.36852266	      1.92629411	     20.38001809	    -12.68740872	     -7.49999987	    -43.26191545	    -10.94677737	    -28.79949506	     93.43230009	     10.34002747	     69.91539942	    105.35851068	     70.79536440	    109.51458148	    -12.63678813	     77.54017602	    120.71003040	     71.40328368
      9.56666670	    -16.97732660	     15.28143708	     31.20679095	      0.66071892	      0.64912168	      0.00374711	    112.12513972	    -14.22543130	     39.31883574	     62.53800794	      1.09149415	    -12.73381846	    -10.57802427	     -7.49999987	     90.18033748	     19.91782101	    -25.42351957	    110.49202915	      1.92844971	     20.70328204	    -12.20205989	     -7.49999987	    -42.47414050	    -11.09600926	    -29.13985366	     93.77084837	     11.59432761	     69.62932314	    104.87722765	     66.59868428	    108.85409416	    -13.62724018	     75.45829080	    122.91795199	     67.15181203
      9.58333330	    -17.12689852	     15.19956481	     30.91322342	      0.65577902	      0.64997597	      0.00623398	    112.34334780	    -13.85446913	     39.29504348	     62.62771171	      1.09305977	    -12.69149430	    -10.36475119	     -7.49999987	     90.51708499	     19.63070482	    -25.35767383	    110.62470148	      1.93076527	     20.74446597	    -11.91573572	     -7.49999987	    -42.13929668	    -11.44266169	    -29.17046578	     94.57074655	     11.73375375	     68.54981613	    104.45242443	     66.66235835	    109.46123353	    -13.53972765	     74.94298266	    122.45982628	     67.19898678
      9.60000000	    -16.86822003	     15.51860762	     30.54056392	      0.65568878	      0.65686022	     -0.00496984	    112.12117840	    -13.70917632	     39.30161692	     62.62231763	      1.09296563	    -12.51993242	     -9.96171984	     -7.49999987	     90.19859269	     19.64935191	    -25.45452274	    110.56340769	      1.92969550	     20.85337072	    -11.61429896	     -7.49999987	    -42.20937027	    -11.64693696	    -29.38982381	     94.00414303	     10.84142602	     68.85387042	    104.41901849	     66.92393870	    108.72126745	    -13.07043879	     75.32002584	    121.18891004	     67.59771005
      9.61666670	    -16.89285108	     15.80318915	     30.18061238	      0.65654826	      0.66799670	      0.00104889	    111.93344543	    -13.57691795	     39.31349612	     62.23738488	      1.08624728	    -12.54661307	     -9.70389742	     -7.49999987	     89.85602784	     19.67298908	    -25.60387708	    110.18081685	      1.92301803	     21.23017701	    -10.81623811	     -7.49999987	    -42.17686337	    -12.11594650	    -29.19795423	     93.28464195	     10.41201641	     68.36042095	    103.14004517	     66.88459884	    108.00432613	    -13.79984601	     76.83560212	    120.31598239	     68.07545472
      9.63333330	    -17.21211468	     15.83051999	     29.79950438	      0.65064238	      0.66946663	      0.00340813	    112.00897342	    -13.30006296	     39.25790995	     61.87461460	      1.07991575	    -12.61013891	     -9.45892932	     -7.49999987	     89.83590542	     19.51411862	    -25.64251760	    109.67263596	      1.91414860	     21.22600860	    -10.44690259	     -7.49999987	    -41.78654262	    -12.68624221	    -28.96630238	     94.17665702	     10.45134089	     67.95813156	    102.42017829	     66.91980416	    108.68952671	    -13.85608180	     76.59091880	    119.90566349	     68.11945579
